<svg width="2557" height="1118" xmlns="http://www.w3.org/2000/svg" xmlns:xlink="http://www.w3.org/1999/xlink" overflow="hidden"><defs><clipPath id="clip0"><rect x="2016" y="854" width="2557" height="1118"/></clipPath><clipPath id="clip1"><rect x="2015" y="854" width="2558" height="1118"/></clipPath><clipPath id="clip2"><rect x="2271" y="906" width="2255" height="734"/></clipPath><clipPath id="clip3"><rect x="2271" y="906" width="2255" height="734"/></clipPath><clipPath id="clip4"><rect x="2271" y="906" width="2255" height="734"/></clipPath><clipPath id="clip5"><rect x="2271" y="906" width="2255" height="734"/></clipPath><clipPath id="clip6"><rect x="2271" y="906" width="2255" height="734"/></clipPath><clipPath id="clip7"><rect x="2271" y="906" width="2255" height="734"/></clipPath><clipPath id="clip8"><rect x="2271" y="906" width="2255" height="734"/></clipPath><clipPath id="clip9"><rect x="2271" y="906" width="2255" height="734"/></clipPath><clipPath id="clip10"><rect x="2015" y="854" width="2558" height="1118"/></clipPath><clipPath id="clip11"><rect x="2015" y="854" width="2558" height="1118"/></clipPath><clipPath id="clip12"><rect x="2015" y="854" width="2558" height="1118"/></clipPath><clipPath id="clip13"><rect x="2015" y="854" width="2558" height="1118"/></clipPath><clipPath id="clip14"><rect x="2015" y="854" width="2558" height="1118"/></clipPath><clipPath id="clip15"><rect x="2015" y="854" width="2558" height="1118"/></clipPath><clipPath id="clip16"><rect x="2015" y="854" width="2558" height="1118"/></clipPath><clipPath id="clip17"><rect x="2015" y="854" width="2558" height="1118"/></clipPath><clipPath id="clip18"><rect x="2015" y="854" width="2558" height="1118"/></clipPath><clipPath id="clip19"><rect x="2015" y="854" width="2558" height="1118"/></clipPath><clipPath id="clip20"><rect x="2015" y="854" width="2558" height="1118"/></clipPath><clipPath id="clip21"><rect x="2015" y="854" width="2558" height="1118"/></clipPath><clipPath id="clip22"><rect x="2015" y="854" width="2558" height="1118"/></clipPath><clipPath id="clip23"><rect x="2015" y="854" width="2558" height="1118"/></clipPath><clipPath id="clip24"><rect x="2015" y="854" width="2558" height="1118"/></clipPath><clipPath id="clip25"><rect x="2015" y="854" width="2558" height="1118"/></clipPath><clipPath id="clip26"><rect x="2015" y="854" width="2558" height="1118"/></clipPath><clipPath id="clip27"><rect x="2015" y="854" width="2558" height="1118"/></clipPath><clipPath id="clip28"><rect x="2015" y="854" width="2558" height="1118"/></clipPath><clipPath id="clip29"><rect x="2015" y="854" width="2558" height="1118"/></clipPath><clipPath id="clip30"><rect x="2015" y="854" width="2558" height="1118"/></clipPath><clipPath id="clip31"><rect x="2015" y="854" width="2558" height="1118"/></clipPath><clipPath id="clip32"><rect x="2015" y="854" width="2558" height="1118"/></clipPath><clipPath id="clip33"><rect x="2015" y="854" width="2558" height="1118"/></clipPath><clipPath id="clip34"><rect x="2015" y="854" width="2558" height="1118"/></clipPath><clipPath id="clip35"><rect x="2015" y="854" width="2558" height="1118"/></clipPath><clipPath id="clip36"><rect x="2015" y="854" width="2558" height="1118"/></clipPath><clipPath id="clip37"><rect x="2015" y="854" width="2558" height="1118"/></clipPath><clipPath id="clip38"><rect x="2015" y="854" width="2558" height="1118"/></clipPath><clipPath id="clip39"><rect x="2015" y="854" width="2558" height="1118"/></clipPath><clipPath id="clip40"><rect x="2015" y="854" width="2558" height="1118"/></clipPath><clipPath id="clip41"><rect x="2015" y="854" width="2558" height="1118"/></clipPath><clipPath id="clip42"><rect x="2015" y="854" width="2558" height="1118"/></clipPath><clipPath id="clip43"><rect x="2015" y="854" width="2558" height="1118"/></clipPath><clipPath id="clip44"><rect x="2015" y="854" width="2558" height="1118"/></clipPath><clipPath id="clip45"><rect x="2015" y="854" width="2558" height="1118"/></clipPath><clipPath id="clip46"><rect x="2015" y="854" width="2558" height="1118"/></clipPath><clipPath id="clip47"><rect x="2015" y="854" width="2558" height="1118"/></clipPath><clipPath id="clip48"><rect x="2015" y="854" width="2558" height="1118"/></clipPath><clipPath id="clip49"><rect x="2015" y="854" width="2558" height="1118"/></clipPath><clipPath id="clip50"><rect x="2015" y="854" width="2558" height="1118"/></clipPath><clipPath id="clip51"><rect x="2015" y="854" width="2558" height="1118"/></clipPath><clipPath id="clip52"><rect x="2015" y="854" width="2558" height="1118"/></clipPath><clipPath id="clip53"><rect x="2015" y="854" width="2558" height="1118"/></clipPath><clipPath id="clip54"><rect x="2015" y="854" width="2558" height="1118"/></clipPath><clipPath id="clip55"><rect x="2015" y="854" width="2558" height="1118"/></clipPath></defs><g clip-path="url(#clip0)" transform="translate(-2016 -854)"><rect x="2016" y="854" width="2557" height="1118" fill="#FFFFFF"/><g clip-path="url(#clip1)"><path d="M2271.5 1514.55 4522.5 1514.55M2271.5 1393.55 4522.5 1393.55M2271.5 1271.54 4522.5 1271.54M2271.5 1150.54 4522.5 1150.54M2271.5 1028.53 4522.5 1028.53M2271.5 906.5 4522.5 906.5" stroke="#FFFFFF" stroke-width="3.4375" stroke-linejoin="round" stroke-miterlimit="10" fill="none"/></g><g clip-path="url(#clip2)"><rect x="4086.5" y="1241.5" width="37" height="395" stroke="#7F7F7F" stroke-width="3.4375" stroke-linejoin="round" stroke-miterlimit="10" fill="#70AD47"/></g><g clip-path="url(#clip3)"><rect x="4150.5" y="1229.5" width="37" height="407" stroke="#7F7F7F" stroke-width="3.4375" stroke-linejoin="round" stroke-miterlimit="10" fill="#70AD47"/></g><g clip-path="url(#clip4)"><rect x="4214.5" y="1192.5" width="37" height="444" stroke="#7F7F7F" stroke-width="3.4375" stroke-linejoin="round" stroke-miterlimit="10" fill="#70AD47"/></g><g clip-path="url(#clip5)"><rect x="4279.5" y="1186.5" width="36" height="450" stroke="#7F7F7F" stroke-width="3.4375" stroke-linejoin="round" stroke-miterlimit="10" fill="#70AD47"/></g><g clip-path="url(#clip6)"><rect x="4343.5" y="1186.5" width="37" height="450" stroke="#7F7F7F" stroke-width="3.4375" stroke-linejoin="round" stroke-miterlimit="10" fill="#70AD47"/></g><g clip-path="url(#clip7)"><rect x="4407.5" y="1162.5" width="37" height="474" stroke="#7F7F7F" stroke-width="3.4375" stroke-linejoin="round" stroke-miterlimit="10" fill="#70AD47"/></g><g clip-path="url(#clip8)"><rect x="4472.5" y="1004.5" width="36" height="632" stroke="#7F7F7F" stroke-width="3.4375" stroke-linejoin="round" stroke-miterlimit="10" fill="#70AD47"/></g><g clip-path="url(#clip9)"><path d="M2285.58 1514.55 2322.58 1514.55 2322.58 1636.5 2285.58 1636.5ZM2349.58 1508.55 2386.58 1508.55 2386.58 1636.5 2349.58 1636.5ZM2413.58 1502.55 2450.58 1502.55 2450.58 1636.5 2413.58 1636.5ZM2478.58 1496.55 2515.58 1496.55 2515.58 1636.5 2478.58 1636.5ZM2542.58 1496.55 2579.58 1496.55 2579.58 1636.5 2542.58 1636.5ZM2606.59 1496.55 2643.59 1496.55 2643.59 1636.5 2606.59 1636.5ZM2671.59 1490.55 2707.59 1490.55 2707.59 1636.5 2671.59 1636.5ZM2735.59 1490.55 2772.59 1490.55 2772.59 1636.5 2735.59 1636.5ZM2799.59 1490.55 2836.59 1490.55 2836.59 1636.5 2799.59 1636.5ZM2864.59 1490.55 2900.6 1490.55 2900.6 1636.5 2864.59 1636.5ZM2928.6 1490.55 2965.6 1490.55 2965.6 1636.5 2928.6 1636.5ZM2992.6 1484.55 3029.6 1484.55 3029.6 1636.5 2992.6 1636.5ZM3057.6 1460.55 3093.6 1460.55 3093.6 1636.5 3057.6 1636.5ZM3121.6 1448.55 3158.6 1448.55 3158.6 1636.5 3121.6 1636.5ZM3185.6 1435.55 3222.61 1435.55 3222.61 1636.5 3185.6 1636.5ZM3250.61 1417.55 3286.61 1417.55 3286.61 1636.5 3250.61 1636.5ZM3314.61 1411.55 3351.61 1411.55 3351.61 1636.5 3314.61 1636.5ZM3378.61 1405.55 3415.61 1405.55 3415.61 1636.5 3378.61 1636.5ZM3442.61 1387.55 3479.61 1387.55 3479.61 1636.5 3442.61 1636.5ZM3507.62 1375.55 3544.62 1375.55 3544.62 1636.5 3507.62 1636.5ZM3571.62 1320.54 3608.62 1320.54 3608.62 1636.5 3571.62 1636.5ZM3635.62 1320.54 3672.62 1320.54 3672.62 1636.5 3635.62 1636.5ZM3700.62 1314.54 3737.62 1314.54 3737.62 1636.5 3700.62 1636.5ZM3764.62 1308.54 3801.62 1308.54 3801.62 1636.5 3764.62 1636.5ZM3828.63 1308.54 3865.63 1308.54 3865.63 1636.5 3828.63 1636.5ZM3893.63 1295.54 3929.63 1295.54 3929.63 1636.5 3893.63 1636.5ZM3957.63 1295.54 3994.63 1295.54 3994.63 1636.5 3957.63 1636.5ZM4021.63 1277.54 4058.63 1277.54 4058.63 1636.5 4021.63 1636.5Z" stroke="#7F7F7F" stroke-width="3.4375" stroke-linejoin="round" stroke-miterlimit="10" fill="#A9D18E"/></g><g clip-path="url(#clip10)"><path d="M0 0 0.000360892 730" stroke="#000000" stroke-width="4.58333" stroke-linejoin="round" stroke-miterlimit="10" fill="none" fill-rule="evenodd" transform="matrix(1 0 0 -1 2271.5 1636.5)"/></g><g clip-path="url(#clip11)"><path d="M2256.5 1636.5 2271.5 1636.5M2256.5 1514.55 2271.5 1514.55M2256.5 1393.55 2271.5 1393.55M2256.5 1271.54 2271.5 1271.54M2256.5 1150.54 2271.5 1150.54M2256.5 1028.53 2271.5 1028.53M2256.5 906.5 2271.5 906.5" stroke="#000000" stroke-width="4.58333" stroke-linejoin="round" stroke-miterlimit="10" fill="none"/></g><g clip-path="url(#clip12)"><path d="M2271.5 1636.5 4522.5 1636.5" stroke="#D9D9D9" stroke-width="3.4375" stroke-linejoin="round" stroke-miterlimit="10" fill="none" fill-rule="evenodd"/></g><g clip-path="url(#clip13)"><text font-family="Calibri,Calibri_MSFontService,sans-serif" font-weight="400" font-size="48" transform="matrix(1 0 0 1 2202.55 1651)">0</text></g><g clip-path="url(#clip14)"><text font-family="Calibri,Calibri_MSFontService,sans-serif" font-weight="400" font-size="48" transform="matrix(1 0 0 1 2178.17 1529)">20</text></g><g clip-path="url(#clip15)"><text font-family="Calibri,Calibri_MSFontService,sans-serif" font-weight="400" font-size="48" transform="matrix(1 0 0 1 2178.17 1407)">40</text></g><g clip-path="url(#clip16)"><text font-family="Calibri,Calibri_MSFontService,sans-serif" font-weight="400" font-size="48" transform="matrix(1 0 0 1 2178.17 1286)">60</text></g><g clip-path="url(#clip17)"><text font-family="Calibri,Calibri_MSFontService,sans-serif" font-weight="400" font-size="48" transform="matrix(1 0 0 1 2178.17 1164)">80</text></g><g clip-path="url(#clip18)"><text font-family="Calibri,Calibri_MSFontService,sans-serif" font-weight="400" font-size="48" transform="matrix(1 0 0 1 2153.79 1042)">100</text></g><g clip-path="url(#clip19)"><text font-family="Calibri,Calibri_MSFontService,sans-serif" font-weight="400" font-size="48" transform="matrix(1 0 0 1 2153.79 921)">120</text></g><g clip-path="url(#clip20)"><text font-family="Calibri,Calibri_MSFontService,sans-serif" font-style="italic" font-weight="400" font-size="48" transform="matrix(6.12323e-17 -1 1 6.12323e-17 2320.37 1888)">    Puls.vern</text></g><g clip-path="url(#clip21)"><text font-family="Calibri,Calibri_MSFontService,sans-serif" font-style="italic" font-weight="400" font-size="48" transform="matrix(6.12323e-17 -1 1 6.12323e-17 2384.69 1907)">    Ligu.muto</text></g><g clip-path="url(#clip22)"><text font-family="Calibri,Calibri_MSFontService,sans-serif" font-style="italic" font-weight="400" font-size="48" transform="matrix(6.12323e-17 -1 1 6.12323e-17 2449.01 1874)">    Erig.unif</text></g><g clip-path="url(#clip23)"><text font-family="Calibri,Calibri_MSFontService,sans-serif" font-style="italic" font-weight="400" font-size="48" transform="matrix(6.12323e-17 -1 1 6.12323e-17 2513.33 1900)">    Aven.vers</text></g><g clip-path="url(#clip24)"><text font-family="Calibri,Calibri_MSFontService,sans-serif" font-style="italic" font-weight="400" font-size="48" transform="matrix(6.12323e-17 -1 1 6.12323e-17 2577.65 1902)">    Fest.quad</text></g><g clip-path="url(#clip25)"><text font-family="Calibri,Calibri_MSFontService,sans-serif" font-style="italic" font-weight="400" font-size="48" transform="matrix(6.12323e-17 -1 1 6.12323e-17 2641.96 1901)">    Sedu.alpe</text></g><g clip-path="url(#clip26)"><text font-family="Calibri,Calibri_MSFontService,sans-serif" font-style="italic" font-weight="400" font-size="48" transform="matrix(6.12323e-17 -1 1 6.12323e-17 2706.28 1902)">    Anth.nipp</text></g><g clip-path="url(#clip27)"><text font-family="Calibri,Calibri_MSFontService,sans-serif" font-style="italic" font-weight="400" font-size="48" transform="matrix(6.12323e-17 -1 1 6.12323e-17 2770.6 1917)">    Care.semp</text></g><g clip-path="url(#clip28)"><text font-family="Calibri,Calibri_MSFontService,sans-serif" font-style="italic" font-weight="400" font-size="48" transform="matrix(6.12323e-17 -1 1 6.12323e-17 2834.92 1871)">    Fest.viol</text></g><g clip-path="url(#clip29)"><text font-family="Calibri,Calibri_MSFontService,sans-serif" font-style="italic" font-weight="400" font-size="48" transform="matrix(6.12323e-17 -1 1 6.12323e-17 2899.24 1886)">    Card.alpi</text></g><g clip-path="url(#clip30)"><text font-family="Calibri,Calibri_MSFontService,sans-serif" font-style="italic" font-weight="400" font-size="48" transform="matrix(6.12323e-17 -1 1 6.12323e-17 2963.55 1934)">    Semp.mont</text></g><g clip-path="url(#clip31)"><text font-family="Calibri,Calibri_MSFontService,sans-serif" font-style="italic" font-weight="400" font-size="48" transform="matrix(6.12323e-17 -1 1 6.12323e-17 3027.87 1892)">    Alch.glau</text></g><g clip-path="url(#clip32)"><text font-family="Calibri,Calibri_MSFontService,sans-serif" font-style="italic" font-weight="400" font-size="48" transform="matrix(6.12323e-17 -1 1 6.12323e-17 3092.19 1903)">    Gent.vern</text></g><g clip-path="url(#clip33)"><text font-family="Calibri,Calibri_MSFontService,sans-serif" font-style="italic" font-weight="400" font-size="48" transform="matrix(6.12323e-17 -1 1 6.12323e-17 3156.51 1875)">    Cera.stri</text></g><g clip-path="url(#clip34)"><text font-family="Calibri,Calibri_MSFontService,sans-serif" font-style="italic" font-weight="400" font-size="48" transform="matrix(6.12323e-17 -1 1 6.12323e-17 3220.83 1918)">    Ranu.kuep</text></g><g clip-path="url(#clip35)"><text font-family="Calibri,Calibri_MSFontService,sans-serif" font-style="italic" font-weight="400" font-size="48" transform="matrix(6.12323e-17 -1 1 6.12323e-17 3285.15 1890)">    Sagi.glab</text></g><g clip-path="url(#clip36)"><text font-family="Calibri,Calibri_MSFontService,sans-serif" font-style="italic" font-weight="400" font-size="48" transform="matrix(6.12323e-17 -1 1 6.12323e-17 3349.46 1922)">    Camp.sche</text></g><g clip-path="url(#clip37)"><text font-family="Calibri,Calibri_MSFontService,sans-serif" font-style="italic" font-weight="400" font-size="48" transform="matrix(6.12323e-17 -1 1 6.12323e-17 3413.78 1882)">    Leuc.alpi</text></g><g clip-path="url(#clip38)"><text font-family="Calibri,Calibri_MSFontService,sans-serif" font-style="italic" font-weight="400" font-size="48" transform="matrix(6.12323e-17 -1 1 6.12323e-17 3478.1 1884)">    Vero.bell</text></g><g clip-path="url(#clip39)"><text font-family="Calibri,Calibri_MSFontService,sans-serif" font-style="italic" font-weight="400" font-size="48" transform="matrix(6.12323e-17 -1 1 6.12323e-17 3542.42 1870)">    Poly.vivi</text></g><g clip-path="url(#clip40)"><text font-family="Calibri,Calibri_MSFontService,sans-serif" font-style="italic" font-weight="400" font-size="48" transform="matrix(6.12323e-17 -1 1 6.12323e-17 3606.74 1906)">    Agro.rupe</text></g><g clip-path="url(#clip41)"><text font-family="Calibri,Calibri_MSFontService,sans-serif" font-style="italic" font-weight="400" font-size="48" transform="matrix(6.12323e-17 -1 1 6.12323e-17 3671.05 1891)">    Care.foet</text></g><g clip-path="url(#clip42)"><text font-family="Calibri,Calibri_MSFontService,sans-serif" font-style="italic" font-weight="400" font-size="48" transform="matrix(6.12323e-17 -1 1 6.12323e-17 3735.37 1897)">    Care.rosa</text></g><g clip-path="url(#clip43)"><text font-family="Calibri,Calibri_MSFontService,sans-serif" font-style="italic" font-weight="400" font-size="48" transform="matrix(6.12323e-17 -1 1 6.12323e-17 3799.69 1907)">    Omal.supi</text></g><g clip-path="url(#clip44)"><text font-family="Calibri,Calibri_MSFontService,sans-serif" font-style="italic" font-weight="400" font-size="48" transform="matrix(6.12323e-17 -1 1 6.12323e-17 3864.01 1916)">    Minu.sedo</text></g><g clip-path="url(#clip45)"><text font-family="Calibri,Calibri_MSFontService,sans-serif" font-style="italic" font-weight="400" font-size="48" transform="matrix(6.12323e-17 -1 1 6.12323e-17 3928.33 1917)">    Kobr.myos</text></g><g clip-path="url(#clip46)"><text font-family="Calibri,Calibri_MSFontService,sans-serif" font-style="italic" font-weight="400" font-size="48" transform="matrix(6.12323e-17 -1 1 6.12323e-17 3992.65 1901)">    Leon.pyre</text></g><g clip-path="url(#clip47)"><text font-family="Calibri,Calibri_MSFontService,sans-serif" font-style="italic" font-weight="400" font-size="48" transform="matrix(6.12323e-17 -1 1 6.12323e-17 4056.96 1891)">    Sibb.proc</text></g><g clip-path="url(#clip48)"><text font-family="Calibri,Calibri_MSFontService,sans-serif" font-style="italic" font-weight="400" font-size="48" transform="matrix(6.12323e-17 -1 1 6.12323e-17 4121.28 1900)">    Pote.aure</text></g><g clip-path="url(#clip49)"><text font-family="Calibri,Calibri_MSFontService,sans-serif" font-style="italic" font-weight="400" font-size="48" transform="matrix(6.12323e-17 -1 1 6.12323e-17 4185.6 1880)">    Sali.herb</text></g><g clip-path="url(#clip50)"><text font-family="Calibri,Calibri_MSFontService,sans-serif" font-style="italic" font-weight="400" font-size="48" transform="matrix(6.12323e-17 -1 1 6.12323e-17 4249.92 1883)">    Alop.alpi</text></g><g clip-path="url(#clip51)"><text font-family="Calibri,Calibri_MSFontService,sans-serif" font-style="italic" font-weight="400" font-size="48" transform="matrix(6.12323e-17 -1 1 6.12323e-17 4314.24 1895)">    Alch.pent</text></g><g clip-path="url(#clip52)"><text font-family="Calibri,Calibri_MSFontService,sans-serif" font-style="italic" font-weight="400" font-size="48" transform="matrix(6.12323e-17 -1 1 6.12323e-17 4378.55 1880)">    Plan.alpi</text></g><g clip-path="url(#clip53)"><text font-family="Calibri,Calibri_MSFontService,sans-serif" font-style="italic" font-weight="400" font-size="48" transform="matrix(6.12323e-17 -1 1 6.12323e-17 4442.87 1943)">    Geum.mont</text></g><g clip-path="url(#clip54)"><text font-family="Calibri,Calibri_MSFontService,sans-serif" font-style="italic" font-weight="400" font-size="48" transform="matrix(6.12323e-17 -1 1 6.12323e-17 4507.19 1869)">    Poa.alpi</text></g><g clip-path="url(#clip55)"><text font-family="Calibri,Calibri_MSFontService,sans-serif" font-weight="400" font-size="55" transform="matrix(6.12323e-17 -1 1 6.12323e-17 2124.89 1462)">Abundancia total</text></g></g></svg>