<svg width="1076" height="1020" xmlns="http://www.w3.org/2000/svg" xmlns:xlink="http://www.w3.org/1999/xlink" overflow="hidden"><defs><clipPath id="clip0"><rect x="4797" y="960" width="1076" height="1020"/></clipPath><clipPath id="clip1"><rect x="4970" y="1013" width="854" height="836"/></clipPath><clipPath id="clip2"><rect x="4798" y="961" width="1073" height="1016"/></clipPath><clipPath id="clip3"><rect x="4798" y="961" width="1073" height="1016"/></clipPath><clipPath id="clip4"><rect x="4798" y="961" width="1073" height="1016"/></clipPath><clipPath id="clip5"><rect x="4798" y="961" width="1073" height="1016"/></clipPath><clipPath id="clip6"><rect x="4798" y="961" width="1073" height="1016"/></clipPath><clipPath id="clip7"><rect x="4798" y="961" width="1073" height="1016"/></clipPath><clipPath id="clip8"><rect x="4798" y="961" width="1073" height="1016"/></clipPath><clipPath id="clip9"><rect x="4798" y="961" width="1073" height="1016"/></clipPath><clipPath id="clip10"><rect x="4798" y="961" width="1073" height="1016"/></clipPath><clipPath id="clip11"><rect x="4798" y="961" width="1073" height="1016"/></clipPath><clipPath id="clip12"><rect x="4798" y="961" width="1073" height="1016"/></clipPath><clipPath id="clip13"><rect x="4798" y="961" width="1073" height="1016"/></clipPath><clipPath id="clip14"><rect x="4798" y="961" width="1073" height="1016"/></clipPath><clipPath id="clip15"><rect x="4798" y="961" width="1073" height="1016"/></clipPath><clipPath id="clip16"><rect x="4798" y="961" width="1073" height="1016"/></clipPath></defs><g clip-path="url(#clip0)" transform="translate(-4797 -960)"><rect x="4798" y="961" width="1073" height="1017" fill="#FFFFFF"/><g clip-path="url(#clip1)"><path d="M5116.67 1658.55 5249.67 1658.55 5249.67 1845.5 5116.67 1845.5ZM5541.68 1135.54 5674.69 1135.54 5674.69 1845.5 5541.68 1845.5Z" stroke="#7F7F7F" stroke-width="3.4375" stroke-linejoin="round" stroke-miterlimit="10" fill="#AAD576"/></g><g clip-path="url(#clip2)"><path d="M0 0 0.000360892 832" stroke="#000000" stroke-width="3.4375" stroke-linejoin="round" stroke-miterlimit="10" fill="none" fill-rule="evenodd" transform="matrix(1 0 0 -1 4970.5 1845.5)"/></g><g clip-path="url(#clip3)"><path d="M4955.5 1845.5 4970.5 1845.5M4955.5 1753.56 4970.5 1753.56M4955.5 1660.55 4970.5 1660.55M4955.5 1568.55 4970.5 1568.55M4955.5 1475.55 4970.5 1475.55M4955.5 1383.55 4970.5 1383.55M4955.5 1291.54 4970.5 1291.54M4955.5 1198.54 4970.5 1198.54M4955.5 1106.54 4970.5 1106.54M4955.5 1013.5 4970.5 1013.5" stroke="#000000" stroke-width="3.4375" stroke-linejoin="round" stroke-miterlimit="10" fill="none"/></g><g clip-path="url(#clip4)"><path d="M4970.5 1845.5 5820.5 1845.5" stroke="#D9D9D9" stroke-width="3.4375" stroke-linejoin="round" stroke-miterlimit="10" fill="none" fill-rule="evenodd"/></g><g clip-path="url(#clip5)"><text font-family="Calibri,Calibri_MSFontService,sans-serif" font-weight="400" font-size="48" transform="matrix(1 0 0 1 4901.31 1860)">0</text></g><g clip-path="url(#clip6)"><text font-family="Calibri,Calibri_MSFontService,sans-serif" font-weight="400" font-size="48" transform="matrix(1 0 0 1 4852.55 1767)">200</text></g><g clip-path="url(#clip7)"><text font-family="Calibri,Calibri_MSFontService,sans-serif" font-weight="400" font-size="48" transform="matrix(1 0 0 1 4852.55 1675)">400</text></g><g clip-path="url(#clip8)"><text font-family="Calibri,Calibri_MSFontService,sans-serif" font-weight="400" font-size="48" transform="matrix(1 0 0 1 4852.55 1582)">600</text></g><g clip-path="url(#clip9)"><text font-family="Calibri,Calibri_MSFontService,sans-serif" font-weight="400" font-size="48" transform="matrix(1 0 0 1 4852.55 1490)">800</text></g><g clip-path="url(#clip10)"><text font-family="Calibri,Calibri_MSFontService,sans-serif" font-weight="400" font-size="48" transform="matrix(1 0 0 1 4828.16 1398)">1000</text></g><g clip-path="url(#clip11)"><text font-family="Calibri,Calibri_MSFontService,sans-serif" font-weight="400" font-size="48" transform="matrix(1 0 0 1 4828.16 1305)">1200</text></g><g clip-path="url(#clip12)"><text font-family="Calibri,Calibri_MSFontService,sans-serif" font-weight="400" font-size="48" transform="matrix(1 0 0 1 4828.16 1213)">1400</text></g><g clip-path="url(#clip13)"><text font-family="Calibri,Calibri_MSFontService,sans-serif" font-weight="400" font-size="48" transform="matrix(1 0 0 1 4828.16 1120)">1600</text></g><g clip-path="url(#clip14)"><text font-family="Calibri,Calibri_MSFontService,sans-serif" font-weight="400" font-size="48" transform="matrix(1 0 0 1 4828.16 1028)">1800</text></g><g clip-path="url(#clip15)"><text font-family="Calibri,Calibri_MSFontService,sans-serif" font-weight="400" font-size="55" transform="matrix(1 0 0 1 4991.96 1933)">Abundancias &lt;20</text></g><g clip-path="url(#clip16)"><text font-family="Calibri,Calibri_MSFontService,sans-serif" font-weight="400" font-size="55" transform="matrix(1 0 0 1 5423.4 1933)">Abundancias&gt;20</text></g><rect x="4798.5" y="961.5" width="1073" height="1017" stroke="#D9D9D9" stroke-width="3.4375" stroke-linejoin="round" stroke-miterlimit="10" fill="none"/></g></svg>